<?xml version="1.0" encoding="UTF-8" standalone="no"?>
<!-- Generator: Adobe Illustrator 24.2.1, SVG Export Plug-In . SVG Version: 6.00 Build 0)  -->

<svg
   version="1.1"
   id="Calque_1"
   x="0px"
   y="0px"
   viewBox="0 0 841.89 595.28"
   style="enable-background:new 0 0 841.89 595.28;"
   xml:space="preserve"
   sodipodi:docname="LOGOTYPR BAOBAB BRAIN-03 (1).svgz"
   xmlns:inkscape="http://www.inkscape.org/namespaces/inkscape"
   xmlns:sodipodi="http://sodipodi.sourceforge.net/DTD/sodipodi-0.dtd"
   xmlns="http://www.w3.org/2000/svg"
   xmlns:svg="http://www.w3.org/2000/svg"><defs
   id="defs43" /><sodipodi:namedview
   id="namedview41"
   pagecolor="#ffffff"
   bordercolor="#000000"
   borderopacity="0.25"
   inkscape:showpageshadow="2"
   inkscape:pageopacity="0.0"
   inkscape:pagecheckerboard="0"
   inkscape:deskcolor="#d1d1d1" />
<style
   type="text/css"
   id="style2">
	.st0{fill:#EA5927;}
	.st1{fill:#6B3119;}
	.st2{fill:#09090A;}
	.st3{fill:#C7372F;}
	.st4{fill:#88AF45;}
	.st5{fill:#FFFFFF;}
	.st6{fill:#E30613;}
	.st7{fill:#9D9D9C;}
	.st8{fill:#EDEDED;}
	.st9{fill:#C6C6C6;}
	.st10{fill:#DADADA;}
</style>
<g
   id="g38">
	<g
   id="g16">
		<path
   class="st1"
   d="M373.01,248.73h18.39c6.5,0,10.99,3.8,10.99,9.09c0,3.7-1.85,6.39-5.07,8.08c4.23,1.9,6.66,5.28,6.66,9.3    c0,5.81-4.97,9.83-11.89,9.83h-19.08V248.73z M389.44,263.36c2.91,0,4.97-1.69,4.97-4.02c0-2.27-2.06-3.96-4.97-3.96h-8.67v7.98    H389.44z M390.66,278.37c3.12,0,5.34-1.85,5.34-4.44c0-2.59-2.22-4.44-5.34-4.44h-9.88v8.88H390.66z"
   id="path4" />
		<path
   class="st1"
   d="M433.93,279.32h-16.17l-2.33,5.71h-8.72l14.8-36.3h8.72l14.79,36.3h-8.77L433.93,279.32z M431.24,272.72    l-5.39-13.26l-5.39,13.26H431.24z"
   id="path6" />
		<path
   class="st1"
   d="M447.88,266.85c0-10.2,8.88-18.76,19.29-18.76c10.52,0,19.29,8.56,19.29,18.76s-8.77,18.81-19.29,18.81    C456.76,285.66,447.88,277.05,447.88,266.85z M478.47,266.85c0-6.29-5.18-11.68-11.31-11.68c-6.08,0-11.25,5.39-11.25,11.68    c0,6.34,5.18,11.73,11.25,11.73C473.3,278.58,478.47,273.19,478.47,266.85z"
   id="path8" />
		<path
   class="st1"
   d="M492.53,248.73h18.39c6.5,0,10.99,3.8,10.99,9.09c0,3.7-1.85,6.39-5.07,8.08c4.23,1.9,6.66,5.28,6.66,9.3    c0,5.81-4.97,9.83-11.89,9.83h-19.08V248.73z M508.96,263.36c2.91,0,4.97-1.69,4.97-4.02c0-2.27-2.06-3.96-4.97-3.96h-8.67v7.98    H508.96z M510.18,278.37c3.12,0,5.34-1.85,5.34-4.44c0-2.59-2.22-4.44-5.34-4.44h-9.88v8.88H510.18z"
   id="path10" />
		<path
   class="st1"
   d="M553.45,279.32h-16.17l-2.33,5.71h-8.72l14.8-36.3h8.72l14.79,36.3h-8.77L553.45,279.32z M550.76,272.72    l-5.39-13.26l-5.39,13.26H550.76z"
   id="path12" />
		<path
   class="st1"
   d="M569.15,248.73h18.39c6.5,0,10.99,3.8,10.99,9.09c0,3.7-1.85,6.39-5.07,8.08c4.23,1.9,6.66,5.28,6.66,9.3    c0,5.81-4.97,9.83-11.89,9.83h-19.08V248.73z M585.58,263.36c2.91,0,4.97-1.69,4.97-4.02c0-2.27-2.06-3.96-4.97-3.96h-8.67v7.98    H585.58z M586.8,278.37c3.12,0,5.34-1.85,5.34-4.44c0-2.59-2.22-4.44-5.34-4.44h-9.88v8.88H586.8z"
   id="path14" />
	</g>
	<g
   id="g24">
		<rect
   x="241.78"
   y="229.15"
   class="st0"
   width="118.57"
   height="136.13"
   id="rect18" />
		<rect
   x="348.09"
   y="229.15"
   class="st1"
   width="12.26"
   height="136.13"
   id="rect20" />
		<path
   class="st5"
   d="M347.69,276.97c-0.97-0.43-1.96-0.75-2.98-0.97c0.83-2.65,0.95-5.39,0.45-8.19    c-0.49-2.74-1.84-5.83-4.37-7.34c-1.09-0.65-2.28-0.74-3.4-0.45c-0.03-3.41-1.8-6.81-4.18-9.23c-3.22-3.28-7.86-4.13-11.92-2.17    c-0.13-0.12-0.26-0.25-0.38-0.37c-2.76-2.53-6.35-3.39-10.02-3.77c-1.88-0.19-3.73-0.25-5.53-0.87c-1.9-0.65-3.69-1.55-5.65-2.07    c-3.12-0.84-6.75-0.22-9.77,0.73c-3.14,0.98-6.16,2.7-8.29,5.17c-0.19-0.05-0.38-0.11-0.57-0.16c-4.79-1.29-10.05-1.15-14.77,0.32    c-5.64,1.75-12.36,6.13-13.81,11.99c-0.22,0.9-0.16,1.85-0.13,2.76c0.04,0.89-0.12,1.65-0.3,2.52c-0.03,0.14-0.19,0.7-0.2,0.84    c-0.03,0.05-0.06,0.09-0.08,0.11c-0.29,0.31-0.59,0.63-0.87,0.95c-2.01,2.24-4.04,4.71-5.46,7.36c-2.9,5.4-2.33,12.44,0.43,17.78    c5.08,9.83,18.31,10.79,28.24,11.42c0.13,0.01,0.25,0.02,0.38,0.02c4.3,2.96,6.22,3.14,6.36,10.19    c0.16,8.39,10.39,5.71,8.13,19.13c-2.26,13.42-9.69,4.95-5.54,33.47h24.23c0,0-5.37-4.86-5.02-12.76    c0.34-7.89,4.68-10.07,2.42-20.13c-2.26-10.07-0.78-12.11,6.36-19.15c7.14-7.05,2.48-7.3,10.78-10.82    c0.05-0.02,0.1-0.04,0.14-0.07c2.39,0.32,4.85,0.34,7.15,0.24c3.76-0.17,7.46-0.91,11.06-1.88c5.68-1.54,12.2-4.18,14.6-9.84    C357.85,285.49,353.49,279.53,347.69,276.97z M289.53,318.36c-2.79-0.06-5.59-2.07-5.07-7.36c0.23-2.28,0.47-4.9,0.52-7.41    c1.62-0.05,3.22-0.17,4.82-0.36c-0.01,0.01-0.01,0.02-0.01,0.04c-1.76,4.78,0.46,6.42,2.21,7.61    C293.75,312.07,292.33,318.42,289.53,318.36z M301.87,312.32c-1.76,3.59-7.47,6.68-6.3,1.77c1.18-4.9-0.32-3.78-2.72-6.42    c-1.1-1.22-0.24-2.99,0.45-5c1.91-0.38,3.78-0.92,5.58-1.64c0.32,0.52,0.73,1.03,1.24,1.55    C304.34,306.78,303.62,308.74,301.87,312.32z M310.83,310c-1.95,6.04-7.99,4.09-4.61-1.77c2.15-3.74-2-5.81-3.91-8.93    c1.48-0.99,2.76-2.27,3.58-3.83c0.43-0.82,0.7-1.67,0.85-2.54c2.68,3.57,5.6,6.89,9.89,8.75    C313.64,303.69,312.27,305.54,310.83,310z M352.8,289.14c-1.1,5.56-7.75,8.01-12.67,9.4c-5.1,1.45-10.52,2.29-15.82,1.78    c-1.41-0.13-2.82-0.36-4.21-0.7c-0.45-0.11-0.89-0.23-1.33-0.36c-6.07-1.81-9.36-8.04-12.86-12.67c-0.98-1.29-3.47-0.58-2.86,1.16    c1.32,3.76,0.65,7.11-2.92,9.3c-3.66,2.24-8.33,2.9-12.56,3.27c-0.9,0.08-1.8,0.13-2.71,0.17c-1.09,0.05-2.19,0.07-3.28,0.07    c-0.72,0-1.45-0.01-2.17-0.03c9.86-4.48,17.41-13.93,18.93-24.39c0.28-1.91-2.73-2.73-3.01-0.8c-1.63,11.17-10.39,20.95-21.57,24    c-0.77,0.21-1.54,0.39-2.33,0.53c-0.21,0.04-0.38,0.11-0.52,0.19c-0.13-0.01-0.27-0.02-0.4-0.04c-3.94-0.31-7.86-0.83-11.65-1.97    c-4.83-1.46-9.04-4.38-10.91-9.07c-1.16-2.94-1.55-6.33-1.07-9.44c0.45-2.9,1.98-5.33,3.77-7.63c0.96-1.22,1.94-2.45,2.99-3.59    c0.63-0.68,1.16-1.25,1.34-2.17c0.32-1.64,0.52-3.08,0.48-4.76c-0.05-2.03,1.19-3.78,2.54-5.23c3.66-3.94,9.14-6.32,14.56-6.7    c7.68-0.54,18.39,3.03,18.32,11.95c-0.04,5.76-4.27,10.94-9.45,13.32c-1.62,0.74-3.31,1.13-5.03,1.16c-0.2-0.05-0.41-0.05-0.62,0    c-1.09-0.04-2.18-0.21-3.26-0.53c-2.18-0.65-4.82-2.13-3.94-4.67c0.65-1.86-2.37-2.65-3.01-0.81c-1.66,4.76,2.89,7.69,7.33,8.69    c-1.98,1.74-4.27,3.11-6.8,4.01c-1.87,0.67-1.07,3.6,0.83,2.92c3.83-1.37,7.29-3.56,9.97-6.56c6.85-0.36,12.8-5.09,15.51-11.01    c0.88-1.92,1.43-3.95,1.53-5.98c3.04,0.89,6.32,0.99,9.46,0.74c3.39-0.27,6.94-0.98,9.91-2.65c1.74-0.97,0.17-3.59-1.58-2.61    c-2.49,1.41-5.49,1.97-8.33,2.23c-3.24,0.3-6.61,0.14-9.67-0.97c-0.28-1.44-0.82-2.83-1.65-4.15c-1.69-2.68-4.33-4.63-7.26-5.95    c3.91-3.67,10.34-5.41,15.45-3.73c1.59,0.52,3.09,1.25,4.66,1.8c1.6,0.54,3.35,0.6,5.02,0.75c3.47,0.31,6.76,0.99,9.28,3.48    c3.92,3.86,1.77,10.36-0.48,14.5c-1.32,2.43-3.45,4.35-5.28,6.42c-1.88,2.12-3.46,4.44-4.16,7.17c-0.49,1.96,2.26,2.55,3.01,0.81    c0.74-1.7,2.73-5.41,5.13-5.09c2.66,0.36,2.44,4.82,2.3,6.61c-0.14,1.95,2.99,1.93,3.13,0c0.24-3.39-0.36-8.95-4.8-9.56    c-0.13-0.02-0.26-0.03-0.38-0.04c2.02-2.24,3.68-4.48,4.89-7.27c1.87-4.31,2.71-9.28,0.55-13.33c2.9-1.17,5.77-0.32,8.08,2.03    c2.16,2.2,3.67,5.74,2.79,8.77c-0.07,0.23-0.09,0.44-0.05,0.64c-1.1,1.7-1.47,3.89-1.42,5.81c0.05,1.95,3.17,1.96,3.12,0    c-0.04-1.68,0.93-6.87,3.77-5.16c1.7,1.02,2.35,3.66,2.71,5.4c0.43,2.06,0.3,4.3-0.33,6.35c-7.78,2.95-12.46,10.17-14.62,17.78    c-0.54,1.89,2.48,2.69,3.01,0.81c1.76-6.19,5.35-12.37,11.42-15.23c0.25,0.2,0.58,0.34,0.98,0.38    C347.72,279.19,353.9,283.58,352.8,289.14z"
   id="path22" />
	</g>
	<g
   id="g36">
		<path
   class="st0"
   d="M374.57,311.24h17.23c6.08,0,10.36,3.75,10.36,9.04c0,3.8-1.9,6.18-5.18,8.03c4.23,2.06,6.66,5.34,6.66,9.35    c0,5.81-4.65,9.88-11.15,9.88h-17.91V311.24z M390.47,326.35c3.65,0,6.24-2.17,6.24-5.18c0-3.01-2.59-5.23-6.24-5.23h-10.57v10.41    H390.47z M391.27,342.84c4.07,0,6.92-2.48,6.92-5.97s-2.85-5.97-6.92-5.97h-11.36v11.94H391.27z"
   id="path26" />
		<path
   class="st0"
   d="M425.77,319.59v4.54c-5.65,0-9.67,3.12-10.15,7.87v15.54h-5.23v-27.32h5.23v5.23    C417.37,321.86,421.07,319.59,425.77,319.59z"
   id="path28" />
		<path
   class="st0"
   d="M453.78,331v16.54h-5.13v-3.75c-2.01,2.85-5.76,4.39-9.09,4.39c-5.81,0-10.09-3.38-10.09-8.72    c0-5.44,4.91-9.09,10.94-9.09c2.69,0,5.6,0.58,8.24,1.48V331c0-3.43-1.59-7.08-7.03-7.08c-2.7,0-5.34,1.06-7.71,2.27l-1.9-3.86    c3.91-1.96,7.34-2.75,10.36-2.75C449.71,319.59,453.78,324.24,453.78,331z M448.65,338.98v-3.65c-2.22-0.69-4.76-1.06-7.45-1.06    c-3.65,0-6.71,2.06-6.71,5.02s2.64,4.76,6.08,4.76C443.95,344.06,447.75,342.36,448.65,338.98z"
   id="path30" />
		<path
   class="st0"
   d="M460.75,312.51c0-1.64,1.37-3.12,3.17-3.12c1.69,0,3.12,1.48,3.12,3.12c0,1.69-1.43,3.17-3.12,3.17    C462.12,315.68,460.75,314.2,460.75,312.51z M461.28,320.22h5.23v27.32h-5.23V320.22z"
   id="path32" />
		<path
   class="st0"
   d="M498.21,330.16v17.38h-5.13v-16.49c0-4.07-2.59-6.92-6.29-6.92c-3.8,0-7.08,2.48-7.5,5.71v17.7h-5.23v-27.32    h5.23v3.96c1.64-2.7,4.97-4.6,8.67-4.6C493.99,319.59,498.21,323.98,498.21,330.16z"
   id="path34" />
	</g>
</g>
</svg>
