<svg width="286" height="341" viewBox="0 0 286 341" fill="none" xmlns="http://www.w3.org/2000/svg">
<path fill-rule="evenodd" clip-rule="evenodd" d="M131.096 15.783C153.279 57.0295 237.141 -22.4649 264.834 6.90827C295.424 39.3533 224.019 89.1548 232.856 132.549C239.882 167.049 308.415 171.592 305.512 206.662C302.884 238.405 247.057 231.094 222.94 252.335C193.996 277.827 192.119 341.412 153.279 340.738C126.416 296.028 88.6398 232.038 40.4998 264.418C22.6481 244.495 56.3204 190.34 40.4998 168.819C18.3183 138.645 -7.37739 118.922 2.05513 82.8567C11.3846 47.1853 34.1171 84.3607 69.9189 73.6051C98.1575 65.1217 102.023 20.8469 131.096 15.783Z" fill="#EFA176"/>
</svg>
